<?xml version="1.0"?><svg xmlns="http://www.w3.org/2000/svg" xmlns:xlink="http://www.w3.org/1999/xlink" viewBox="-215.06 -426.82 944.12 944.12" style="overflow: visible; width: 100%; height: 100%; position: absolute; left: 0px; top: 0px; transition: all 350ms ease-in-out 0s; backface-visibility: hidden; opacity: 1; transform: rotate3d(1, 1, 0, 0deg);" width="798.4031936127744px" height="798.4031936127744px"><g transform="translate(0 0)"><g transform="translate(0 0)"><g transform="translate(0 0)"><g transform="translate(256.9999450155672,45.24309341125681)"><path d="M-51.38,-422.79 C-23.02,-451.15 23.02,-451.15 51.38,-422.79  L422.79,-51.38 C451.15,-23.02 451.15,23.02 422.79,51.38  L51.38,422.79 C23.02,451.15 -23.02,451.15 -51.38,422.79  L-422.79,51.38 C-451.15,23.02 -451.15,-23.02 -422.79,-51.38  Z" fill="#000000" class=""></path></g></g><g transform="translate(146.6870967717332 0)"><g transform="translate(0 0)"><g transform="scale(0.8960000000000001 0.8960000000000001) translate(-2.9200000762939453 70.01000213623047)"><g transform="translate(0.000,0)" fill="#75d2bd" stroke="#75d2bd" stroke-width="0"><path d="M92.04,-70.01L74.80,-70.01L47.46,-37.15L20.11,-70.01L2.92,-70.01L2.92,0.00L22.02,0.00L22.02,-37.89L47.46,-7.37L72.94,-37.89L72.94,0.00L92.04,0.00L92.04,-70.01Z   " class=""></path></g><g transform="translate(94.970,0)" fill="#75d2bd" stroke="#75d2bd" stroke-width="0"><path d="M58.59,-70.01L33.34,-70.01L2.92,0.00L23.73,0.00L27.88,-9.52L64.06,-9.52L68.21,0.00L89.06,0.00L58.59,-70.01Z   M36.18,-28.61L45.89,-50.92L46.09,-50.92L55.76,-28.61L36.18,-28.61Z   " class=""></path></g><g transform="translate(186.960,0)" fill="#75d2bd" stroke="#75d2bd" stroke-width="0"><path d="M69.72,-70.01L50.63,-70.01L50.63,-32.51L20.21,-70.01L2.92,-70.01L2.92,0.00L22.02,0.00L22.02,-37.50L52.49,0.00L69.72,0.00L69.72,-70.01Z   " class=""></path></g><g transform="translate(259.610,0)" fill="#75d2bd" stroke="#75d2bd" stroke-width="0"><path d="M69.72,-70.01L50.63,-70.01L50.63,-32.51L20.21,-70.01L2.92,-70.01L2.92,0.00L22.02,0.00L22.02,-37.50L52.49,0.00L69.72,0.00L69.72,-70.01Z   " class=""></path></g><g transform="translate(332.260,0)" fill="#75d2bd" stroke="#75d2bd" stroke-width="0"><path d="M79.19,-70.01L56.44,-70.01L41.06,-46.19L25.68,-70.01L2.92,-70.01L31.49,-25.83L31.49,0.00L50.58,0.00L50.58,-25.83L79.19,-70.01Z   " class=""></path></g></g><g transform="scale(0.41767122176615556 0.41767122176615556) translate(-2.9200000762939453 233.9881704774716)"><g transform="translate(0.000,0)" fill="#ffffff" stroke="#ffffff" stroke-width="0"><path d="M45.89,-41.35L22.02,-41.35L22.02,-50.92L45.89,-50.92L46.84,-50.83L48.52,-50.13L49.26,-49.51L49.86,-48.77L50.54,-47.08L50.63,-46.14L50.54,-45.18L49.86,-43.49L49.26,-42.77L48.52,-42.15L46.84,-41.44L45.89,-41.35Z   M47.46,-70.01L2.92,-70.01L2.92,0.00L22.02,0.00L22.02,-22.26L31.39,-22.26L46.63,0.00L69.72,0.00L53.85,-23.19L54.83,-23.51L56.72,-24.26L58.51,-25.16L60.18,-26.22L61.76,-27.42L63.23,-28.78L64.59,-30.29L65.23,-31.10L65.85,-31.96L66.95,-33.72L67.86,-35.55L68.60,-37.44L69.15,-39.39L69.51,-41.40L69.70,-43.47L69.72,-44.53L69.72,-47.70L69.70,-48.72L69.54,-50.70L69.22,-52.62L68.74,-54.47L68.10,-56.26L67.30,-57.98L66.33,-59.63L65.21,-61.22L63.93,-62.74L63.23,-63.47L62.49,-64.18L60.97,-65.47L59.39,-66.60L57.73,-67.57L56.01,-68.38L54.23,-69.02L52.38,-69.51L50.46,-69.83L48.48,-69.99L47.46,-70.01Z   " class=""></path></g><g transform="translate(72.650,0)" fill="#ffffff" stroke="#ffffff" stroke-width="0"><path d="M50.63,-44.53L50.63,-25.43L50.51,-24.16L49.58,-21.92L48.77,-20.94L47.80,-20.13L45.55,-19.21L44.28,-19.09L28.36,-19.09L27.09,-19.21L24.85,-20.13L23.87,-20.94L23.06,-21.92L22.14,-24.16L22.02,-25.43L22.02,-44.53L22.14,-45.80L23.06,-48.04L23.87,-49.02L24.85,-49.85L27.09,-50.80L28.36,-50.92L44.28,-50.92L45.55,-50.80L47.80,-49.85L48.77,-49.02L49.58,-48.04L50.51,-45.80L50.63,-44.53Z   M47.46,-70.01L25.19,-70.01L24.17,-69.99L22.19,-69.83L20.27,-69.51L18.43,-69.02L16.64,-68.38L14.93,-67.57L13.29,-66.60L11.71,-65.47L10.20,-64.18L9.47,-63.47L8.76,-62.74L7.47,-61.22L6.34,-59.63L5.37,-57.98L4.56,-56.26L3.91,-54.47L3.43,-52.62L3.10,-50.70L2.94,-48.72L2.92,-47.70L2.92,-22.26L2.94,-21.24L3.10,-19.26L3.43,-17.34L3.91,-15.50L4.56,-13.71L5.37,-12.00L6.34,-10.36L7.47,-8.78L8.76,-7.27L9.47,-6.54L10.20,-5.83L11.71,-4.54L13.29,-3.41L14.93,-2.44L16.64,-1.64L18.43,-0.99L20.27,-0.50L22.19,-0.18L24.17,-0.02L25.19,0.00L47.46,0.00L48.48,-0.02L50.46,-0.18L52.38,-0.50L54.23,-0.99L56.01,-1.64L57.73,-2.44L59.39,-3.41L60.97,-4.54L62.49,-5.83L63.23,-6.54L63.93,-7.27L65.21,-8.78L66.33,-10.36L67.30,-12.00L68.10,-13.71L68.74,-15.50L69.22,-17.34L69.54,-19.26L69.70,-21.24L69.72,-22.26L69.72,-47.70L69.70,-48.72L69.54,-50.70L69.22,-52.62L68.74,-54.47L68.10,-56.26L67.30,-57.98L66.33,-59.63L65.21,-61.22L63.93,-62.74L63.23,-63.47L62.49,-64.18L60.97,-65.47L59.39,-66.60L57.73,-67.57L56.01,-68.38L54.23,-69.02L52.38,-69.51L50.46,-69.83L48.48,-69.99L47.46,-70.01Z   " class=""></path></g><g transform="translate(145.300,0)" fill="#ffffff" stroke="#ffffff" stroke-width="0"><path d="M50.63,-44.53L25.19,-44.53L23.97,-44.76L22.94,-45.45L22.25,-46.48L22.02,-47.70L22.25,-48.92L22.94,-49.95L23.97,-50.68L25.19,-50.92L69.72,-50.92L69.72,-70.01L25.19,-70.01L24.17,-69.99L22.19,-69.83L20.27,-69.51L18.43,-69.02L16.64,-68.38L14.93,-67.57L13.29,-66.60L11.71,-65.47L10.20,-64.18L9.47,-63.47L8.76,-62.74L7.47,-61.22L6.34,-59.63L5.37,-57.98L4.56,-56.26L3.91,-54.47L3.43,-52.62L3.10,-50.70L2.94,-48.72L2.92,-47.70L2.94,-46.68L3.10,-44.70L3.43,-42.78L3.91,-40.94L4.56,-39.16L5.37,-37.44L6.34,-35.80L7.47,-34.22L8.76,-32.71L9.47,-31.98L10.20,-31.27L11.71,-29.98L13.29,-28.85L14.93,-27.88L16.64,-27.07L18.43,-26.42L20.27,-25.94L22.19,-25.61L24.17,-25.45L25.19,-25.43L50.63,-25.43L51.85,-25.20L52.88,-24.51L53.61,-23.48L53.85,-22.26L53.61,-21.04L52.88,-20.01L51.85,-19.32L50.63,-19.09L6.10,-19.09L6.10,0.00L50.63,0.00L51.65,-0.02L53.63,-0.18L55.55,-0.50L57.40,-0.99L59.19,-1.64L60.91,-2.44L62.56,-3.41L64.15,-4.54L65.67,-5.83L66.40,-6.54L67.11,-7.27L68.40,-8.78L69.53,-10.36L70.50,-12.00L71.31,-13.71L71.95,-15.50L72.44,-17.34L72.76,-19.26L72.92,-21.24L72.94,-22.26L72.92,-23.28L72.76,-25.26L72.44,-27.18L71.95,-29.03L71.31,-30.82L70.50,-32.54L69.53,-34.19L68.40,-35.78L67.11,-37.30L66.40,-38.03L65.67,-38.73L64.15,-40.02L62.56,-41.14L60.91,-42.10L59.19,-42.91L57.40,-43.55L55.55,-44.03L53.63,-44.35L51.65,-44.51L50.63,-44.53Z   " class=""></path></g><g transform="translate(221.170,0)" fill="#ffffff" stroke="#ffffff" stroke-width="0"><path d="M69.72,-70.01L2.92,-70.01L2.92,0.00L69.72,0.00L69.72,-19.09L22.02,-19.09L22.02,-25.43L63.37,-25.43L63.37,-44.53L22.02,-44.53L22.02,-50.92L69.72,-50.92L69.72,-70.01Z   " class=""></path></g><g transform="translate(293.820,0)" fill="#ffffff" stroke="#ffffff" stroke-width="0"><path d="" class=""></path></g><g transform="translate(323.260,0)" fill="#ffffff" stroke="#ffffff" stroke-width="0"><path d="M45.89,-41.35L22.02,-41.35L22.02,-50.92L45.89,-50.92L46.84,-50.83L48.52,-50.13L49.26,-49.51L49.86,-48.77L50.54,-47.08L50.63,-46.14L50.54,-45.18L49.86,-43.49L49.26,-42.77L48.52,-42.15L46.84,-41.44L45.89,-41.35Z   M47.46,-70.01L2.92,-70.01L2.92,0.00L22.02,0.00L22.02,-22.26L47.46,-22.26L48.48,-22.28L50.46,-22.44L52.38,-22.76L54.23,-23.25L56.01,-23.89L57.73,-24.70L59.39,-25.67L60.97,-26.80L62.49,-28.09L63.23,-28.80L63.93,-29.53L65.21,-31.04L66.33,-32.62L67.30,-34.27L68.10,-35.98L68.74,-37.76L69.22,-39.61L69.54,-41.53L69.70,-43.51L69.72,-44.53L69.72,-47.70L69.70,-48.72L69.54,-50.70L69.22,-52.62L68.74,-54.47L68.10,-56.26L67.30,-57.98L66.33,-59.63L65.21,-61.22L63.93,-62.74L63.23,-63.47L62.49,-64.18L60.97,-65.47L59.39,-66.60L57.73,-67.57L56.01,-68.38L54.23,-69.02L52.38,-69.51L50.46,-69.83L48.48,-69.99L47.46,-70.01Z   " class=""></path></g><g transform="translate(395.910,0)" fill="#ffffff" stroke="#ffffff" stroke-width="0"><path d="M45.89,-41.35L22.02,-41.35L22.02,-50.92L45.89,-50.92L46.84,-50.83L48.52,-50.13L49.26,-49.51L49.86,-48.77L50.54,-47.08L50.63,-46.14L50.54,-45.18L49.86,-43.49L49.26,-42.77L48.52,-42.15L46.84,-41.44L45.89,-41.35Z   M47.46,-70.01L2.92,-70.01L2.92,0.00L22.02,0.00L22.02,-22.26L31.39,-22.26L46.63,0.00L69.72,0.00L53.85,-23.19L54.83,-23.51L56.72,-24.26L58.51,-25.16L60.18,-26.22L61.76,-27.42L63.23,-28.78L64.59,-30.29L65.23,-31.10L65.85,-31.96L66.95,-33.72L67.86,-35.55L68.60,-37.44L69.15,-39.39L69.51,-41.40L69.70,-43.47L69.72,-44.53L69.72,-47.70L69.70,-48.72L69.54,-50.70L69.22,-52.62L68.74,-54.47L68.10,-56.26L67.30,-57.98L66.33,-59.63L65.21,-61.22L63.93,-62.74L63.23,-63.47L62.49,-64.18L60.97,-65.47L59.39,-66.60L57.73,-67.57L56.01,-68.38L54.23,-69.02L52.38,-69.51L50.46,-69.83L48.48,-69.99L47.46,-70.01Z   " class=""></path></g><g transform="translate(468.560,0)" fill="#ffffff" stroke="#ffffff" stroke-width="0"><path d="M50.63,-44.53L50.63,-25.43L50.51,-24.16L49.58,-21.92L48.77,-20.94L47.80,-20.13L45.55,-19.21L44.28,-19.09L28.36,-19.09L27.09,-19.21L24.85,-20.13L23.87,-20.94L23.06,-21.92L22.14,-24.16L22.02,-25.43L22.02,-44.53L22.14,-45.80L23.06,-48.04L23.87,-49.02L24.85,-49.85L27.09,-50.80L28.36,-50.92L44.28,-50.92L45.55,-50.80L47.80,-49.85L48.77,-49.02L49.58,-48.04L50.51,-45.80L50.63,-44.53Z   M47.46,-70.01L25.19,-70.01L24.17,-69.99L22.19,-69.83L20.27,-69.51L18.43,-69.02L16.64,-68.38L14.93,-67.57L13.29,-66.60L11.71,-65.47L10.20,-64.18L9.47,-63.47L8.76,-62.74L7.47,-61.22L6.34,-59.63L5.37,-57.98L4.56,-56.26L3.91,-54.47L3.43,-52.62L3.10,-50.70L2.94,-48.72L2.92,-47.70L2.92,-22.26L2.94,-21.24L3.10,-19.26L3.43,-17.34L3.91,-15.50L4.56,-13.71L5.37,-12.00L6.34,-10.36L7.47,-8.78L8.76,-7.27L9.47,-6.54L10.20,-5.83L11.71,-4.54L13.29,-3.41L14.93,-2.44L16.64,-1.64L18.43,-0.99L20.27,-0.50L22.19,-0.18L24.17,-0.02L25.19,0.00L47.46,0.00L48.48,-0.02L50.46,-0.18L52.38,-0.50L54.23,-0.99L56.01,-1.64L57.73,-2.44L59.39,-3.41L60.97,-4.54L62.49,-5.83L63.23,-6.54L63.93,-7.27L65.21,-8.78L66.33,-10.36L67.30,-12.00L68.10,-13.71L68.74,-15.50L69.22,-17.34L69.54,-19.26L69.70,-21.24L69.72,-22.26L69.72,-47.70L69.70,-48.72L69.54,-50.70L69.22,-52.62L68.74,-54.47L68.10,-56.26L67.30,-57.98L66.33,-59.63L65.21,-61.22L63.93,-62.74L63.23,-63.47L62.49,-64.18L60.97,-65.47L59.39,-66.60L57.73,-67.57L56.01,-68.38L54.23,-69.02L52.38,-69.51L50.46,-69.83L48.48,-69.99L47.46,-70.01Z   " class=""></path></g><g transform="translate(541.210,0)" fill="#ffffff" stroke="#ffffff" stroke-width="0"><path d="M25.19,-70.01L25.19,-25.43L25.07,-24.16L24.14,-21.92L23.33,-20.94L22.36,-20.13L20.11,-19.21L18.84,-19.09L2.92,-19.09L2.92,0.00L22.02,0.00L23.04,-0.02L25.02,-0.18L26.94,-0.50L28.79,-0.99L30.58,-1.64L32.30,-2.44L33.95,-3.41L35.54,-4.54L37.06,-5.83L37.79,-6.54L38.49,-7.27L39.77,-8.78L40.89,-10.36L41.86,-12.00L42.66,-13.71L43.30,-15.50L43.78,-17.34L44.10,-19.26L44.26,-21.24L44.28,-22.26L44.28,-70.01Z   " class=""></path></g><g transform="translate(588.420,0)" fill="#ffffff" stroke="#ffffff" stroke-width="0"><path d="M69.72,-70.01L2.92,-70.01L2.92,0.00L69.72,0.00L69.72,-19.09L22.02,-19.09L22.02,-25.43L63.37,-25.43L63.37,-44.53L22.02,-44.53L22.02,-50.92L69.72,-50.92L69.72,-70.01Z   " class=""></path></g><g transform="translate(661.070,0)" fill="#ffffff" stroke="#ffffff" stroke-width="0"><path d="M2.92,-47.70L2.92,-22.26L2.94,-21.24L3.10,-19.26L3.43,-17.34L3.91,-15.50L4.56,-13.71L5.37,-12.00L6.34,-10.36L7.47,-8.78L8.76,-7.27L9.47,-6.54L10.20,-5.83L11.71,-4.54L13.29,-3.41L14.93,-2.44L16.64,-1.64L18.43,-0.99L20.27,-0.50L22.19,-0.18L24.17,-0.02L25.19,0.00L69.72,0.00L69.72,-19.09L28.36,-19.09L27.09,-19.21L24.85,-20.13L23.87,-20.94L23.06,-21.92L22.14,-24.16L22.02,-25.43L22.02,-44.53L22.14,-45.80L23.06,-48.04L23.87,-49.02L24.85,-49.85L27.09,-50.80L28.36,-50.92L69.72,-50.92L69.72,-70.01L25.19,-70.01L24.17,-69.99L22.19,-69.83L20.27,-69.51L18.43,-69.02L16.64,-68.38L14.93,-67.57L13.29,-66.60L11.71,-65.47L10.20,-64.18L9.47,-63.47L8.76,-62.74L7.47,-61.22L6.34,-59.63L5.37,-57.98L4.56,-56.26L3.91,-54.47L3.43,-52.62L3.10,-50.70L2.94,-48.72L2.92,-47.70Z   " class=""></path></g><g transform="translate(733.720,0)" fill="#ffffff" stroke="#ffffff" stroke-width="0"><path d="M69.72,-70.01L2.92,-70.01L2.92,-50.92L26.80,-50.92L26.80,0.00L45.89,0.00L45.89,-50.92L69.72,-50.92L69.72,-70.01Z   " class=""></path></g><g transform="translate(806.370,0)" fill="#ffffff" stroke="#ffffff" stroke-width="0"><path d="M50.63,-44.53L25.19,-44.53L23.97,-44.76L22.94,-45.45L22.25,-46.48L22.02,-47.70L22.25,-48.92L22.94,-49.95L23.97,-50.68L25.19,-50.92L69.72,-50.92L69.72,-70.01L25.19,-70.01L24.17,-69.99L22.19,-69.83L20.27,-69.51L18.43,-69.02L16.64,-68.38L14.93,-67.57L13.29,-66.60L11.71,-65.47L10.20,-64.18L9.47,-63.47L8.76,-62.74L7.47,-61.22L6.34,-59.63L5.37,-57.98L4.56,-56.26L3.91,-54.47L3.43,-52.62L3.10,-50.70L2.94,-48.72L2.92,-47.70L2.94,-46.68L3.10,-44.70L3.43,-42.78L3.91,-40.94L4.56,-39.16L5.37,-37.44L6.34,-35.80L7.47,-34.22L8.76,-32.71L9.47,-31.98L10.20,-31.27L11.71,-29.98L13.29,-28.85L14.93,-27.88L16.64,-27.07L18.43,-26.42L20.27,-25.94L22.19,-25.61L24.17,-25.45L25.19,-25.43L50.63,-25.43L51.85,-25.20L52.88,-24.51L53.61,-23.48L53.85,-22.26L53.61,-21.04L52.88,-20.01L51.85,-19.32L50.63,-19.09L6.10,-19.09L6.10,0.00L50.63,0.00L51.65,-0.02L53.63,-0.18L55.55,-0.50L57.40,-0.99L59.19,-1.64L60.91,-2.44L62.56,-3.41L64.15,-4.54L65.67,-5.83L66.40,-6.54L67.11,-7.27L68.40,-8.78L69.53,-10.36L70.50,-12.00L71.31,-13.71L71.95,-15.50L72.44,-17.34L72.76,-19.26L72.92,-21.24L72.94,-22.26L72.92,-23.28L72.76,-25.26L72.44,-27.18L71.95,-29.03L71.31,-30.82L70.50,-32.54L69.53,-34.19L68.40,-35.78L67.11,-37.30L66.40,-38.03L65.67,-38.73L64.15,-40.02L62.56,-41.14L60.91,-42.10L59.19,-42.91L57.40,-43.55L55.55,-44.03L53.63,-44.35L51.65,-44.51L50.63,-44.53Z   " class=""></path></g></g></g></g><g transform="translate(0 0)"><g><g fill="#ffffff" stroke="none" x="0" y="0" transform="translate(-19.760479828272327, -34.46595318884709) scale(1.6339414845083062)"><switch><g><g><path d="M13,39.5v4l7-1.612V80h10V52h14v28h36V28.072L89,26v-4L13,39.5z M74,66H60V52h14V66z" fill-rule="nonzero" fill="#ffffff" stroke="none" stroke-width="1px" stroke-linecap="butt" stroke-linejoin="miter" stroke-miterlimit="4" stroke-dasharray="none" class=""></path></g></g></switch></g></g></g></g></g></svg>